<mxfile host="app.diagrams.net" modified="2023-05-27T05:08:52.624Z" agent="Mozilla/5.0 (Windows NT 10.0; Win64; x64) AppleWebKit/537.36 (KHTML, like Gecko) Chrome/113.0.0.0 Safari/537.36 Edg/113.0.1774.50" etag="o9K5NYB4ZtWi0qyU4bJr" version="21.3.4" type="device">
  <diagram name="Halaman-1" id="MfAhkodC8sBDE3Hnrv4k">
    <mxGraphModel dx="1506" dy="711" grid="1" gridSize="10" guides="1" tooltips="1" connect="1" arrows="1" fold="1" page="1" pageScale="1" pageWidth="827" pageHeight="1169" math="0" shadow="0">
      <root>
        <mxCell id="0" />
        <mxCell id="1" parent="0" />
        <mxCell id="CcOYlkJvs8jnX8ofghZh-23" value="" style="shape=parallelogram;perimeter=parallelogramPerimeter;whiteSpace=wrap;html=1;fixedSize=1;" vertex="1" parent="1">
          <mxGeometry x="415" y="1552" width="120" height="60" as="geometry" />
        </mxCell>
        <mxCell id="028KvaAbYY9_1VPaLJx6-73" value="" style="rounded=0;whiteSpace=wrap;html=1;" parent="1" vertex="1">
          <mxGeometry x="419" y="1662" width="120" height="60" as="geometry" />
        </mxCell>
        <mxCell id="028KvaAbYY9_1VPaLJx6-26" value="" style="ellipse;whiteSpace=wrap;html=1;" parent="1" vertex="1">
          <mxGeometry x="419" width="120" height="80" as="geometry" />
        </mxCell>
        <mxCell id="028KvaAbYY9_1VPaLJx6-3" value="" style="edgeStyle=orthogonalEdgeStyle;rounded=0;orthogonalLoop=1;jettySize=auto;html=1;entryX=0.5;entryY=0;entryDx=0;entryDy=0;exitX=0.5;exitY=1;exitDx=0;exitDy=0;" parent="1" source="028KvaAbYY9_1VPaLJx6-26" target="028KvaAbYY9_1VPaLJx6-20" edge="1">
          <mxGeometry relative="1" as="geometry">
            <mxPoint x="479" y="60" as="sourcePoint" />
            <mxPoint x="479" y="110" as="targetPoint" />
          </mxGeometry>
        </mxCell>
        <mxCell id="028KvaAbYY9_1VPaLJx6-36" value="" style="edgeStyle=orthogonalEdgeStyle;rounded=0;orthogonalLoop=1;jettySize=auto;html=1;entryX=0.5;entryY=0;entryDx=0;entryDy=0;" parent="1" source="028KvaAbYY9_1VPaLJx6-2" target="028KvaAbYY9_1VPaLJx6-34" edge="1">
          <mxGeometry relative="1" as="geometry" />
        </mxCell>
        <mxCell id="028KvaAbYY9_1VPaLJx6-2" value="" style="shape=parallelogram;perimeter=parallelogramPerimeter;whiteSpace=wrap;html=1;fixedSize=1;" parent="1" vertex="1">
          <mxGeometry x="419" y="330" width="120" height="60" as="geometry" />
        </mxCell>
        <mxCell id="028KvaAbYY9_1VPaLJx6-9" value="Start" style="text;html=1;strokeColor=none;fillColor=none;align=center;verticalAlign=middle;whiteSpace=wrap;rounded=0;" parent="1" vertex="1">
          <mxGeometry x="449" y="25" width="60" height="30" as="geometry" />
        </mxCell>
        <mxCell id="028KvaAbYY9_1VPaLJx6-24" value="" style="edgeStyle=orthogonalEdgeStyle;rounded=0;orthogonalLoop=1;jettySize=auto;html=1;" parent="1" source="028KvaAbYY9_1VPaLJx6-20" target="028KvaAbYY9_1VPaLJx6-23" edge="1">
          <mxGeometry relative="1" as="geometry" />
        </mxCell>
        <mxCell id="028KvaAbYY9_1VPaLJx6-20" value="" style="shape=parallelogram;perimeter=parallelogramPerimeter;whiteSpace=wrap;html=1;fixedSize=1;" parent="1" vertex="1">
          <mxGeometry x="419" y="100" width="120" height="60" as="geometry" />
        </mxCell>
        <mxCell id="028KvaAbYY9_1VPaLJx6-22" value="Masukkan akun sso" style="text;html=1;strokeColor=none;fillColor=none;align=center;verticalAlign=middle;whiteSpace=wrap;rounded=0;" parent="1" vertex="1">
          <mxGeometry x="449" y="115" width="60" height="30" as="geometry" />
        </mxCell>
        <mxCell id="028KvaAbYY9_1VPaLJx6-31" value="" style="edgeStyle=orthogonalEdgeStyle;rounded=0;orthogonalLoop=1;jettySize=auto;html=1;" parent="1" source="028KvaAbYY9_1VPaLJx6-23" target="028KvaAbYY9_1VPaLJx6-2" edge="1">
          <mxGeometry relative="1" as="geometry" />
        </mxCell>
        <mxCell id="028KvaAbYY9_1VPaLJx6-23" value="" style="rhombus;whiteSpace=wrap;html=1;" parent="1" vertex="1">
          <mxGeometry x="439" y="190" width="80" height="80" as="geometry" />
        </mxCell>
        <mxCell id="028KvaAbYY9_1VPaLJx6-28" value="Tidak" style="text;html=1;strokeColor=none;fillColor=none;align=center;verticalAlign=middle;whiteSpace=wrap;rounded=0;" parent="1" vertex="1">
          <mxGeometry x="545" y="210" width="60" height="30" as="geometry" />
        </mxCell>
        <mxCell id="028KvaAbYY9_1VPaLJx6-32" value="Ya" style="text;html=1;strokeColor=none;fillColor=none;align=center;verticalAlign=middle;whiteSpace=wrap;rounded=0;" parent="1" vertex="1">
          <mxGeometry x="461" y="280" width="60" height="30" as="geometry" />
        </mxCell>
        <mxCell id="028KvaAbYY9_1VPaLJx6-33" value="Input Pemohon" style="text;html=1;strokeColor=none;fillColor=none;align=center;verticalAlign=middle;whiteSpace=wrap;rounded=0;" parent="1" vertex="1">
          <mxGeometry x="449" y="345" width="60" height="30" as="geometry" />
        </mxCell>
        <mxCell id="028KvaAbYY9_1VPaLJx6-38" value="" style="edgeStyle=orthogonalEdgeStyle;rounded=0;orthogonalLoop=1;jettySize=auto;html=1;" parent="1" source="028KvaAbYY9_1VPaLJx6-34" target="028KvaAbYY9_1VPaLJx6-37" edge="1">
          <mxGeometry relative="1" as="geometry" />
        </mxCell>
        <mxCell id="028KvaAbYY9_1VPaLJx6-42" value="" style="edgeStyle=orthogonalEdgeStyle;rounded=0;orthogonalLoop=1;jettySize=auto;html=1;" parent="1" source="028KvaAbYY9_1VPaLJx6-34" target="028KvaAbYY9_1VPaLJx6-41" edge="1">
          <mxGeometry relative="1" as="geometry" />
        </mxCell>
        <mxCell id="028KvaAbYY9_1VPaLJx6-34" value="" style="rounded=0;whiteSpace=wrap;html=1;" parent="1" vertex="1">
          <mxGeometry x="419" y="450" width="120" height="60" as="geometry" />
        </mxCell>
        <mxCell id="028KvaAbYY9_1VPaLJx6-35" value="Masuk Database" style="text;html=1;strokeColor=none;fillColor=none;align=center;verticalAlign=middle;whiteSpace=wrap;rounded=0;" parent="1" vertex="1">
          <mxGeometry x="449" y="465" width="60" height="30" as="geometry" />
        </mxCell>
        <mxCell id="028KvaAbYY9_1VPaLJx6-37" value="" style="shape=document;whiteSpace=wrap;html=1;boundedLbl=1;" parent="1" vertex="1">
          <mxGeometry x="205" y="440" width="120" height="80" as="geometry" />
        </mxCell>
        <mxCell id="028KvaAbYY9_1VPaLJx6-39" value="Database" style="text;html=1;strokeColor=none;fillColor=none;align=center;verticalAlign=middle;whiteSpace=wrap;rounded=0;" parent="1" vertex="1">
          <mxGeometry x="235" y="465" width="60" height="30" as="geometry" />
        </mxCell>
        <mxCell id="028KvaAbYY9_1VPaLJx6-45" value="" style="edgeStyle=orthogonalEdgeStyle;rounded=0;orthogonalLoop=1;jettySize=auto;html=1;" parent="1" source="028KvaAbYY9_1VPaLJx6-41" target="028KvaAbYY9_1VPaLJx6-44" edge="1">
          <mxGeometry relative="1" as="geometry" />
        </mxCell>
        <mxCell id="028KvaAbYY9_1VPaLJx6-41" value="" style="rounded=0;whiteSpace=wrap;html=1;" parent="1" vertex="1">
          <mxGeometry x="419" y="570" width="120" height="60" as="geometry" />
        </mxCell>
        <mxCell id="028KvaAbYY9_1VPaLJx6-43" value="Pengecekan dari pihak prodi" style="text;html=1;strokeColor=none;fillColor=none;align=center;verticalAlign=middle;whiteSpace=wrap;rounded=0;" parent="1" vertex="1">
          <mxGeometry x="449" y="585" width="60" height="30" as="geometry" />
        </mxCell>
        <mxCell id="028KvaAbYY9_1VPaLJx6-51" value="" style="edgeStyle=orthogonalEdgeStyle;rounded=0;orthogonalLoop=1;jettySize=auto;html=1;" parent="1" source="028KvaAbYY9_1VPaLJx6-44" target="028KvaAbYY9_1VPaLJx6-50" edge="1">
          <mxGeometry relative="1" as="geometry" />
        </mxCell>
        <mxCell id="028KvaAbYY9_1VPaLJx6-44" value="" style="rhombus;whiteSpace=wrap;html=1;" parent="1" vertex="1">
          <mxGeometry x="439" y="680" width="80" height="80" as="geometry" />
        </mxCell>
        <mxCell id="028KvaAbYY9_1VPaLJx6-46" value="Acc atau tidak" style="text;html=1;strokeColor=none;fillColor=none;align=center;verticalAlign=middle;whiteSpace=wrap;rounded=0;" parent="1" vertex="1">
          <mxGeometry x="449" y="705" width="60" height="30" as="geometry" />
        </mxCell>
        <mxCell id="028KvaAbYY9_1VPaLJx6-49" value="Tidak" style="text;html=1;strokeColor=none;fillColor=none;align=center;verticalAlign=middle;whiteSpace=wrap;rounded=0;" parent="1" vertex="1">
          <mxGeometry x="545" y="700" width="60" height="30" as="geometry" />
        </mxCell>
        <mxCell id="028KvaAbYY9_1VPaLJx6-55" value="" style="edgeStyle=orthogonalEdgeStyle;rounded=0;orthogonalLoop=1;jettySize=auto;html=1;" parent="1" source="028KvaAbYY9_1VPaLJx6-50" target="028KvaAbYY9_1VPaLJx6-54" edge="1">
          <mxGeometry relative="1" as="geometry" />
        </mxCell>
        <mxCell id="028KvaAbYY9_1VPaLJx6-50" value="" style="rounded=0;whiteSpace=wrap;html=1;" parent="1" vertex="1">
          <mxGeometry x="419" y="821" width="120" height="60" as="geometry" />
        </mxCell>
        <mxCell id="028KvaAbYY9_1VPaLJx6-52" value="Update spreedsheet (hijau)" style="text;html=1;strokeColor=none;fillColor=none;align=center;verticalAlign=middle;whiteSpace=wrap;rounded=0;" parent="1" vertex="1">
          <mxGeometry x="449" y="836" width="60" height="30" as="geometry" />
        </mxCell>
        <mxCell id="028KvaAbYY9_1VPaLJx6-53" value="" style="endArrow=classic;html=1;rounded=0;exitX=0;exitY=0.5;exitDx=0;exitDy=0;" parent="1" source="028KvaAbYY9_1VPaLJx6-50" edge="1">
          <mxGeometry width="50" height="50" relative="1" as="geometry">
            <mxPoint x="565" y="710" as="sourcePoint" />
            <mxPoint x="375" y="480" as="targetPoint" />
            <Array as="points">
              <mxPoint x="375" y="850" />
            </Array>
          </mxGeometry>
        </mxCell>
        <mxCell id="028KvaAbYY9_1VPaLJx6-54" value="" style="shape=parallelogram;perimeter=parallelogramPerimeter;whiteSpace=wrap;html=1;fixedSize=1;" parent="1" vertex="1">
          <mxGeometry x="419" y="941" width="120" height="60" as="geometry" />
        </mxCell>
        <mxCell id="028KvaAbYY9_1VPaLJx6-56" value="Input selesai atau lanjut ke fakultas" style="text;html=1;strokeColor=none;fillColor=none;align=center;verticalAlign=middle;whiteSpace=wrap;rounded=0;" parent="1" vertex="1">
          <mxGeometry x="449" y="956" width="60" height="30" as="geometry" />
        </mxCell>
        <mxCell id="028KvaAbYY9_1VPaLJx6-62" value="" style="edgeStyle=orthogonalEdgeStyle;rounded=0;orthogonalLoop=1;jettySize=auto;html=1;entryX=0.536;entryY=0.005;entryDx=0;entryDy=0;entryPerimeter=0;" parent="1" source="028KvaAbYY9_1VPaLJx6-58" target="CcOYlkJvs8jnX8ofghZh-23" edge="1">
          <mxGeometry relative="1" as="geometry">
            <mxPoint x="480" y="1540" as="targetPoint" />
          </mxGeometry>
        </mxCell>
        <mxCell id="028KvaAbYY9_1VPaLJx6-58" value="" style="rhombus;whiteSpace=wrap;html=1;" parent="1" vertex="1">
          <mxGeometry x="429" y="1383" width="100" height="90" as="geometry" />
        </mxCell>
        <mxCell id="028KvaAbYY9_1VPaLJx6-60" value="" style="endArrow=classic;html=1;rounded=0;exitX=1;exitY=0.5;exitDx=0;exitDy=0;" parent="1" source="028KvaAbYY9_1VPaLJx6-58" edge="1">
          <mxGeometry width="50" height="50" relative="1" as="geometry">
            <mxPoint x="595" y="1552" as="sourcePoint" />
            <mxPoint x="673" y="1428" as="targetPoint" />
            <Array as="points" />
          </mxGeometry>
        </mxCell>
        <mxCell id="028KvaAbYY9_1VPaLJx6-63" value="Tidak" style="text;html=1;strokeColor=none;fillColor=none;align=center;verticalAlign=middle;whiteSpace=wrap;rounded=0;" parent="1" vertex="1">
          <mxGeometry x="545" y="1403" width="60" height="30" as="geometry" />
        </mxCell>
        <mxCell id="028KvaAbYY9_1VPaLJx6-64" value="Ya" style="text;html=1;strokeColor=none;fillColor=none;align=center;verticalAlign=middle;whiteSpace=wrap;rounded=0;" parent="1" vertex="1">
          <mxGeometry x="469" y="1491" width="60" height="30" as="geometry" />
        </mxCell>
        <mxCell id="028KvaAbYY9_1VPaLJx6-65" value="Output: permohonan tingkat fakultas" style="text;html=1;strokeColor=none;fillColor=none;align=center;verticalAlign=middle;whiteSpace=wrap;rounded=0;" parent="1" vertex="1">
          <mxGeometry x="449" y="1567" width="60" height="30" as="geometry" />
        </mxCell>
        <mxCell id="028KvaAbYY9_1VPaLJx6-67" value="" style="edgeStyle=orthogonalEdgeStyle;rounded=0;orthogonalLoop=1;jettySize=auto;html=1;exitX=0.5;exitY=1;exitDx=0;exitDy=0;" parent="1" source="028KvaAbYY9_1VPaLJx6-73" target="028KvaAbYY9_1VPaLJx6-69" edge="1">
          <mxGeometry relative="1" as="geometry">
            <mxPoint x="479" y="1737" as="sourcePoint" />
          </mxGeometry>
        </mxCell>
        <mxCell id="028KvaAbYY9_1VPaLJx6-68" value="Pengecekan dari pihak fakultas" style="text;html=1;strokeColor=none;fillColor=none;align=center;verticalAlign=middle;whiteSpace=wrap;rounded=0;" parent="1" vertex="1">
          <mxGeometry x="449" y="1677" width="60" height="30" as="geometry" />
        </mxCell>
        <mxCell id="028KvaAbYY9_1VPaLJx6-76" value="" style="edgeStyle=orthogonalEdgeStyle;rounded=0;orthogonalLoop=1;jettySize=auto;html=1;" parent="1" source="028KvaAbYY9_1VPaLJx6-69" target="028KvaAbYY9_1VPaLJx6-75" edge="1">
          <mxGeometry relative="1" as="geometry" />
        </mxCell>
        <mxCell id="028KvaAbYY9_1VPaLJx6-69" value="" style="rhombus;whiteSpace=wrap;html=1;" parent="1" vertex="1">
          <mxGeometry x="439" y="1787" width="80" height="80" as="geometry" />
        </mxCell>
        <mxCell id="028KvaAbYY9_1VPaLJx6-70" value="Acc atau tidak" style="text;html=1;strokeColor=none;fillColor=none;align=center;verticalAlign=middle;whiteSpace=wrap;rounded=0;" parent="1" vertex="1">
          <mxGeometry x="449" y="1812" width="60" height="30" as="geometry" />
        </mxCell>
        <mxCell id="028KvaAbYY9_1VPaLJx6-71" value="" style="endArrow=classic;html=1;rounded=0;exitX=1;exitY=0.5;exitDx=0;exitDy=0;" parent="1" source="028KvaAbYY9_1VPaLJx6-69" edge="1">
          <mxGeometry width="50" height="50" relative="1" as="geometry">
            <mxPoint x="565" y="1817" as="sourcePoint" />
            <mxPoint x="671" y="1827" as="targetPoint" />
          </mxGeometry>
        </mxCell>
        <mxCell id="028KvaAbYY9_1VPaLJx6-72" value="Tidak" style="text;html=1;strokeColor=none;fillColor=none;align=center;verticalAlign=middle;whiteSpace=wrap;rounded=0;" parent="1" vertex="1">
          <mxGeometry x="545" y="1807" width="60" height="30" as="geometry" />
        </mxCell>
        <mxCell id="028KvaAbYY9_1VPaLJx6-79" value="" style="edgeStyle=orthogonalEdgeStyle;rounded=0;orthogonalLoop=1;jettySize=auto;html=1;entryX=0.5;entryY=0;entryDx=0;entryDy=0;" parent="1" source="028KvaAbYY9_1VPaLJx6-75" target="028KvaAbYY9_1VPaLJx6-78" edge="1">
          <mxGeometry relative="1" as="geometry">
            <mxPoint x="479" y="2243" as="targetPoint" />
          </mxGeometry>
        </mxCell>
        <mxCell id="028KvaAbYY9_1VPaLJx6-89" value="" style="edgeStyle=orthogonalEdgeStyle;rounded=0;orthogonalLoop=1;jettySize=auto;html=1;" parent="1" source="028KvaAbYY9_1VPaLJx6-75" target="028KvaAbYY9_1VPaLJx6-88" edge="1">
          <mxGeometry relative="1" as="geometry" />
        </mxCell>
        <mxCell id="028KvaAbYY9_1VPaLJx6-75" value="" style="rounded=0;whiteSpace=wrap;html=1;" parent="1" vertex="1">
          <mxGeometry x="419" y="1932" width="120" height="60" as="geometry" />
        </mxCell>
        <mxCell id="028KvaAbYY9_1VPaLJx6-77" value="Update spreedsheet" style="text;html=1;strokeColor=none;fillColor=none;align=center;verticalAlign=middle;whiteSpace=wrap;rounded=0;" parent="1" vertex="1">
          <mxGeometry x="449" y="1947" width="60" height="30" as="geometry" />
        </mxCell>
        <mxCell id="028KvaAbYY9_1VPaLJx6-78" value="" style="ellipse;whiteSpace=wrap;html=1;" parent="1" vertex="1">
          <mxGeometry x="419" y="2186" width="120" height="80" as="geometry" />
        </mxCell>
        <mxCell id="028KvaAbYY9_1VPaLJx6-83" value="End" style="text;html=1;strokeColor=none;fillColor=none;align=center;verticalAlign=middle;whiteSpace=wrap;rounded=0;" parent="1" vertex="1">
          <mxGeometry x="449" y="2212" width="60" height="30" as="geometry" />
        </mxCell>
        <mxCell id="028KvaAbYY9_1VPaLJx6-84" value="Validasi akun" style="text;html=1;strokeColor=none;fillColor=none;align=center;verticalAlign=middle;whiteSpace=wrap;rounded=0;" parent="1" vertex="1">
          <mxGeometry x="449" y="215" width="60" height="30" as="geometry" />
        </mxCell>
        <mxCell id="028KvaAbYY9_1VPaLJx6-85" value="Pengajuan ke fakultas?" style="text;html=1;strokeColor=none;fillColor=none;align=center;verticalAlign=middle;whiteSpace=wrap;rounded=0;" parent="1" vertex="1">
          <mxGeometry x="451" y="1413" width="60" height="30" as="geometry" />
        </mxCell>
        <mxCell id="028KvaAbYY9_1VPaLJx6-87" value="" style="endArrow=classic;html=1;rounded=0;exitX=1;exitY=0.5;exitDx=0;exitDy=0;" parent="1" source="028KvaAbYY9_1VPaLJx6-44" edge="1">
          <mxGeometry width="50" height="50" relative="1" as="geometry">
            <mxPoint x="603" y="710" as="sourcePoint" />
            <mxPoint x="673" y="720" as="targetPoint" />
          </mxGeometry>
        </mxCell>
        <mxCell id="028KvaAbYY9_1VPaLJx6-88" value="" style="shape=parallelogram;perimeter=parallelogramPerimeter;whiteSpace=wrap;html=1;fixedSize=1;" parent="1" vertex="1">
          <mxGeometry x="419" y="2047" width="120" height="60" as="geometry" />
        </mxCell>
        <mxCell id="028KvaAbYY9_1VPaLJx6-90" value="Update kondisi pengajuan berupa spreedsheet" style="text;html=1;strokeColor=none;fillColor=none;align=center;verticalAlign=middle;whiteSpace=wrap;rounded=0;" parent="1" vertex="1">
          <mxGeometry x="424" y="2062" width="110" height="30" as="geometry" />
        </mxCell>
        <mxCell id="CcOYlkJvs8jnX8ofghZh-3" value="" style="ellipse;whiteSpace=wrap;html=1;aspect=fixed;" vertex="1" parent="1">
          <mxGeometry x="104" y="1051" width="80" height="80" as="geometry" />
        </mxCell>
        <mxCell id="CcOYlkJvs8jnX8ofghZh-4" value="" style="ellipse;whiteSpace=wrap;html=1;aspect=fixed;" vertex="1" parent="1">
          <mxGeometry x="225" y="1051" width="80" height="80" as="geometry" />
        </mxCell>
        <mxCell id="CcOYlkJvs8jnX8ofghZh-5" value="" style="ellipse;whiteSpace=wrap;html=1;aspect=fixed;" vertex="1" parent="1">
          <mxGeometry x="435" y="1051" width="80" height="80" as="geometry" />
        </mxCell>
        <mxCell id="CcOYlkJvs8jnX8ofghZh-6" value="" style="ellipse;whiteSpace=wrap;html=1;aspect=fixed;" vertex="1" parent="1">
          <mxGeometry x="634" y="1051" width="80" height="80" as="geometry" />
        </mxCell>
        <mxCell id="CcOYlkJvs8jnX8ofghZh-7" value="" style="ellipse;whiteSpace=wrap;html=1;aspect=fixed;" vertex="1" parent="1">
          <mxGeometry x="104" y="1200" width="80" height="80" as="geometry" />
        </mxCell>
        <mxCell id="CcOYlkJvs8jnX8ofghZh-8" value="" style="ellipse;whiteSpace=wrap;html=1;aspect=fixed;" vertex="1" parent="1">
          <mxGeometry x="225" y="1200" width="80" height="80" as="geometry" />
        </mxCell>
        <mxCell id="CcOYlkJvs8jnX8ofghZh-9" value="" style="ellipse;whiteSpace=wrap;html=1;aspect=fixed;" vertex="1" parent="1">
          <mxGeometry x="441" y="1200" width="80" height="80" as="geometry" />
        </mxCell>
        <mxCell id="CcOYlkJvs8jnX8ofghZh-10" value="" style="ellipse;whiteSpace=wrap;html=1;aspect=fixed;" vertex="1" parent="1">
          <mxGeometry x="634" y="1200" width="80" height="80" as="geometry" />
        </mxCell>
        <mxCell id="CcOYlkJvs8jnX8ofghZh-11" value="" style="endArrow=classic;html=1;rounded=0;entryX=0.5;entryY=0;entryDx=0;entryDy=0;exitX=1;exitY=0.5;exitDx=0;exitDy=0;" edge="1" parent="1" source="028KvaAbYY9_1VPaLJx6-23" target="CcOYlkJvs8jnX8ofghZh-6">
          <mxGeometry width="50" height="50" relative="1" as="geometry">
            <mxPoint x="560" y="480" as="sourcePoint" />
            <mxPoint x="674" y="810" as="targetPoint" />
            <Array as="points">
              <mxPoint x="680" y="230" />
            </Array>
          </mxGeometry>
        </mxCell>
        <mxCell id="CcOYlkJvs8jnX8ofghZh-13" value="" style="endArrow=classic;html=1;rounded=0;exitX=0.442;exitY=1.01;exitDx=0;exitDy=0;exitPerimeter=0;entryX=0.491;entryY=-0.001;entryDx=0;entryDy=0;entryPerimeter=0;" edge="1" parent="1" source="028KvaAbYY9_1VPaLJx6-54" target="CcOYlkJvs8jnX8ofghZh-5">
          <mxGeometry width="50" height="50" relative="1" as="geometry">
            <mxPoint x="514" y="1051" as="sourcePoint" />
            <mxPoint x="564" y="1001" as="targetPoint" />
          </mxGeometry>
        </mxCell>
        <mxCell id="CcOYlkJvs8jnX8ofghZh-14" value="" style="endArrow=classic;html=1;rounded=0;exitX=0.464;exitY=0.899;exitDx=0;exitDy=0;exitPerimeter=0;entryX=0.5;entryY=0;entryDx=0;entryDy=0;" edge="1" parent="1" source="028KvaAbYY9_1VPaLJx6-37" target="CcOYlkJvs8jnX8ofghZh-4">
          <mxGeometry width="50" height="50" relative="1" as="geometry">
            <mxPoint x="254" y="640" as="sourcePoint" />
            <mxPoint x="334" y="800" as="targetPoint" />
          </mxGeometry>
        </mxCell>
        <mxCell id="CcOYlkJvs8jnX8ofghZh-15" value="" style="endArrow=classic;html=1;rounded=0;entryX=0.5;entryY=0;entryDx=0;entryDy=0;" edge="1" parent="1" target="CcOYlkJvs8jnX8ofghZh-3">
          <mxGeometry width="50" height="50" relative="1" as="geometry">
            <mxPoint x="204" y="480" as="sourcePoint" />
            <mxPoint x="204" y="760" as="targetPoint" />
            <Array as="points">
              <mxPoint x="144" y="480" />
            </Array>
          </mxGeometry>
        </mxCell>
        <mxCell id="CcOYlkJvs8jnX8ofghZh-16" value="" style="endArrow=classic;html=1;rounded=0;exitX=0.5;exitY=1;exitDx=0;exitDy=0;entryX=0.5;entryY=0;entryDx=0;entryDy=0;" edge="1" parent="1" source="CcOYlkJvs8jnX8ofghZh-9" target="028KvaAbYY9_1VPaLJx6-58">
          <mxGeometry width="50" height="50" relative="1" as="geometry">
            <mxPoint x="414" y="1340" as="sourcePoint" />
            <mxPoint x="464" y="1290" as="targetPoint" />
          </mxGeometry>
        </mxCell>
        <mxCell id="CcOYlkJvs8jnX8ofghZh-17" value="" style="endArrow=classic;html=1;rounded=0;exitX=0.5;exitY=1;exitDx=0;exitDy=0;entryX=0;entryY=0.5;entryDx=0;entryDy=0;" edge="1" parent="1" source="CcOYlkJvs8jnX8ofghZh-8" target="CcOYlkJvs8jnX8ofghZh-23">
          <mxGeometry width="50" height="50" relative="1" as="geometry">
            <mxPoint x="254" y="1630" as="sourcePoint" />
            <mxPoint x="400" y="1582" as="targetPoint" />
            <Array as="points">
              <mxPoint x="264" y="1582" />
            </Array>
          </mxGeometry>
        </mxCell>
        <mxCell id="CcOYlkJvs8jnX8ofghZh-18" value="" style="endArrow=classic;html=1;rounded=0;exitX=0.5;exitY=1;exitDx=0;exitDy=0;entryX=0;entryY=0.5;entryDx=0;entryDy=0;" edge="1" parent="1" source="CcOYlkJvs8jnX8ofghZh-7" target="028KvaAbYY9_1VPaLJx6-75">
          <mxGeometry width="50" height="50" relative="1" as="geometry">
            <mxPoint x="154" y="1480" as="sourcePoint" />
            <mxPoint x="364" y="1870" as="targetPoint" />
            <Array as="points">
              <mxPoint x="144" y="1962" />
            </Array>
          </mxGeometry>
        </mxCell>
        <mxCell id="CcOYlkJvs8jnX8ofghZh-19" value="Ya" style="text;html=1;strokeColor=none;fillColor=none;align=center;verticalAlign=middle;whiteSpace=wrap;rounded=0;" vertex="1" parent="1">
          <mxGeometry x="461" y="770" width="60" height="30" as="geometry" />
        </mxCell>
        <mxCell id="CcOYlkJvs8jnX8ofghZh-21" value="" style="endArrow=classic;html=1;rounded=0;exitX=0.5;exitY=1;exitDx=0;exitDy=0;" edge="1" parent="1" source="CcOYlkJvs8jnX8ofghZh-10">
          <mxGeometry width="50" height="50" relative="1" as="geometry">
            <mxPoint x="700" y="2160" as="sourcePoint" />
            <mxPoint x="480" y="2160" as="targetPoint" />
            <Array as="points">
              <mxPoint x="670" y="2160" />
            </Array>
          </mxGeometry>
        </mxCell>
        <mxCell id="CcOYlkJvs8jnX8ofghZh-22" value="Ya" style="text;html=1;strokeColor=none;fillColor=none;align=center;verticalAlign=middle;whiteSpace=wrap;rounded=0;" vertex="1" parent="1">
          <mxGeometry x="461" y="1880" width="60" height="30" as="geometry" />
        </mxCell>
        <mxCell id="CcOYlkJvs8jnX8ofghZh-24" value="" style="endArrow=classic;html=1;rounded=0;exitX=0.5;exitY=1;exitDx=0;exitDy=0;entryX=0.468;entryY=0.003;entryDx=0;entryDy=0;entryPerimeter=0;" edge="1" parent="1" source="CcOYlkJvs8jnX8ofghZh-23" target="028KvaAbYY9_1VPaLJx6-73">
          <mxGeometry width="50" height="50" relative="1" as="geometry">
            <mxPoint x="470" y="1630" as="sourcePoint" />
            <mxPoint x="520" y="1580" as="targetPoint" />
          </mxGeometry>
        </mxCell>
        <mxCell id="CcOYlkJvs8jnX8ofghZh-25" value="1" style="text;html=1;strokeColor=none;fillColor=none;align=center;verticalAlign=middle;whiteSpace=wrap;rounded=0;" vertex="1" parent="1">
          <mxGeometry x="114" y="1076" width="60" height="30" as="geometry" />
        </mxCell>
        <mxCell id="CcOYlkJvs8jnX8ofghZh-26" value="1" style="text;html=1;strokeColor=none;fillColor=none;align=center;verticalAlign=middle;whiteSpace=wrap;rounded=0;" vertex="1" parent="1">
          <mxGeometry x="114" y="1225" width="60" height="30" as="geometry" />
        </mxCell>
        <mxCell id="CcOYlkJvs8jnX8ofghZh-27" value="2" style="text;html=1;strokeColor=none;fillColor=none;align=center;verticalAlign=middle;whiteSpace=wrap;rounded=0;" vertex="1" parent="1">
          <mxGeometry x="235" y="1076" width="60" height="30" as="geometry" />
        </mxCell>
        <mxCell id="CcOYlkJvs8jnX8ofghZh-28" value="2" style="text;html=1;strokeColor=none;fillColor=none;align=center;verticalAlign=middle;whiteSpace=wrap;rounded=0;" vertex="1" parent="1">
          <mxGeometry x="235" y="1225" width="60" height="30" as="geometry" />
        </mxCell>
        <mxCell id="CcOYlkJvs8jnX8ofghZh-29" value="3" style="text;html=1;strokeColor=none;fillColor=none;align=center;verticalAlign=middle;whiteSpace=wrap;rounded=0;" vertex="1" parent="1">
          <mxGeometry x="445" y="1076" width="60" height="30" as="geometry" />
        </mxCell>
        <mxCell id="CcOYlkJvs8jnX8ofghZh-30" value="3" style="text;html=1;strokeColor=none;fillColor=none;align=center;verticalAlign=middle;whiteSpace=wrap;rounded=0;" vertex="1" parent="1">
          <mxGeometry x="451" y="1225" width="60" height="30" as="geometry" />
        </mxCell>
        <mxCell id="CcOYlkJvs8jnX8ofghZh-31" value="4" style="text;html=1;strokeColor=none;fillColor=none;align=center;verticalAlign=middle;whiteSpace=wrap;rounded=0;" vertex="1" parent="1">
          <mxGeometry x="644" y="1076" width="60" height="30" as="geometry" />
        </mxCell>
        <mxCell id="CcOYlkJvs8jnX8ofghZh-32" value="4" style="text;html=1;strokeColor=none;fillColor=none;align=center;verticalAlign=middle;whiteSpace=wrap;rounded=0;" vertex="1" parent="1">
          <mxGeometry x="644" y="1225" width="60" height="30" as="geometry" />
        </mxCell>
      </root>
    </mxGraphModel>
  </diagram>
</mxfile>
